<svg version="1.1" id="Layer_1" xmlns="http://www.w3.org/2000/svg" x="0px"
     y="0px"
     width="100%" viewBox="0 0 1024 688" enable-background="new 0 0 1024 688" xml:space="preserve">
<path fill="#000000" opacity="1.000000" stroke="none"
      d="
M744.754333,400.441040 
	C737.157471,395.885315 729.433960,396.973633 721.424988,398.247955 
	C708.443481,400.313507 695.349121,401.681793 682.291809,403.256805 
	C661.797607,405.728882 641.301636,408.190552 620.790771,410.517975 
	C615.011902,411.173706 609.179810,412.230743 603.368713,411.354126 
	C603.305603,410.629150 603.242493,409.904205 603.179382,409.179260 
	C644.897888,404.279327 686.616394,399.379425 728.334900,394.479492 
	C728.290955,393.882568 728.247009,393.285614 728.203064,392.688660 
	C723.627258,393.022095 719.023254,393.137665 714.480042,393.724121 
	C683.780457,397.686920 653.119202,401.960297 622.391418,405.686493 
	C608.022095,407.428955 593.810974,410.491119 579.298523,411.003998 
	C576.276672,411.110809 573.163818,411.833893 570.958191,408.224640 
	C569.835571,406.387543 566.909790,407.355774 564.805054,407.645935 
	C560.023743,408.305176 555.295532,409.433197 550.427795,409.268799 
	C548.840637,409.215210 547.090515,409.774109 545.783386,408.394135 
	C545.643494,407.515472 546.059937,407.007812 546.790405,406.939575 
	C558.370605,405.857971 569.804016,403.032501 581.534973,403.796967 
	C586.733948,404.135773 591.569946,406.949188 597.095825,405.644226 
	C601.449524,404.616150 605.982666,404.329102 610.444580,403.781616 
	C630.102051,401.369629 649.762390,398.981354 669.422363,396.589447 
	C670.755493,396.427246 672.360962,396.416992 673.087646,395.278809 
	C678.283752,387.140015 685.544067,391.001678 692.280396,391.859100 
	C693.412659,392.003265 694.548645,392.699310 695.627136,392.589874 
	C702.729675,391.869476 709.816956,390.998260 717.027283,389.170746 
	C711.692322,387.918304 706.337402,386.744141 701.027649,385.392700 
	C694.982483,383.854034 688.431641,383.397339 684.646057,377.121796 
	C683.447510,375.135010 680.833984,375.222534 678.679016,375.166229 
	C668.686157,374.905243 658.691101,374.657135 648.742920,376.059540 
	C646.934570,376.314484 645.093933,376.400269 643.265503,376.440430 
	C639.554688,376.521912 637.262207,375.608765 639.261475,371.152740 
	C640.889587,367.524048 638.167725,366.287842 635.459229,365.651642 
	C628.654785,364.053314 621.795105,362.690430 614.959534,361.224060 
	C610.662231,360.302246 606.281738,359.599426 602.608215,357.097687 
	C602.923523,355.884949 603.671570,355.728760 604.246155,355.881104 
	C615.341125,358.822479 626.872131,359.760864 637.846680,363.296997 
	C641.608398,364.509125 644.664307,366.019531 644.611572,370.883942 
	C649.549622,371.183228 654.038513,369.895538 658.551208,369.168091 
	C668.170471,367.617432 677.764587,367.342224 687.394104,368.946259 
	C689.391541,369.278992 691.510498,369.516571 692.611328,371.450439 
	C696.984131,379.132385 704.965393,376.401093 711.390442,377.671967 
	C714.484131,378.283936 713.908752,374.982941 712.884277,372.923157 
	C709.328918,365.774750 705.636108,358.711456 703.024048,351.115509 
	C698.154846,336.955353 696.022644,322.376404 695.654602,307.472229 
	C695.568970,304.002472 695.273132,300.537872 695.052856,296.703217 
	C686.691589,295.589874 678.679626,294.155060 670.604614,293.514801 
	C643.039062,291.329254 615.450806,289.590515 587.762512,290.104492 
	C560.739502,290.606079 534.036133,293.806854 507.384918,298.177521 
	C475.957855,303.331421 445.176208,311.225067 414.434540,319.232239 
	C393.677002,324.638855 372.957977,330.338623 352.659637,337.384644 
	C351.558594,337.766907 350.463074,338.168518 349.380371,338.599762 
	C342.353882,341.398529 342.253052,341.626892 343.308167,349.195251 
	C347.333496,378.068756 346.539673,406.614044 337.438477,434.588318 
	C337.182159,435.376221 337.008362,436.196533 336.869934,437.014252 
	C336.819489,437.312347 336.984497,437.646912 337.313538,439.215027 
	C355.297760,437.776978 373.438965,436.326324 391.580170,434.875702 
	C391.562744,434.390472 391.545319,433.905212 391.527863,433.419983 
	C380.945496,433.085754 370.340973,435.423309 359.729675,434.224152 
	C362.704987,432.236938 365.922546,431.941956 369.162628,431.647614 
	C379.439331,430.713959 390.202454,431.342438 399.880676,428.408569 
	C419.584015,422.435638 440.005951,422.617310 459.990601,419.381866 
	C479.968781,416.147461 500.035614,412.766235 520.344360,411.824524 
	C523.581299,411.674408 526.898193,411.104889 530.154419,413.161987 
	C515.034363,416.126556 499.518372,415.796661 484.384186,419.014465 
	C469.222382,422.238129 453.596588,423.279419 438.208801,425.662292 
	C458.891815,425.010101 479.451508,422.279236 500.625549,421.715332 
	C499.070435,424.733002 496.825195,424.029755 495.002380,424.243896 
	C483.276154,425.621216 471.548340,426.994293 459.803894,428.201660 
	C456.473663,428.544006 454.653809,431.382812 451.438171,432.227936 
	C438.381226,435.659424 424.935974,434.396637 411.778717,436.208710 
	C399.062958,437.959930 386.264099,438.629486 373.475647,439.480469 
	C371.382202,439.619781 369.307068,440.034058 367.245911,440.550293 
	C377.213562,440.822632 387.215973,438.693329 397.147186,441.270142 
	C390.654022,443.851379 383.811401,443.476929 377.147614,443.869537 
	C362.843414,444.712219 348.598419,446.133759 334.332733,447.372101 
	C331.793549,447.592529 330.585205,449.148712 329.281647,450.934326 
	C326.663055,454.521210 324.710480,458.662231 320.204315,461.460999 
	C325.382721,462.670044 329.890839,460.573761 335.000183,461.070587 
	C332.530914,464.413086 336.546783,463.417603 337.356018,465.390137 
	C329.641602,469.491119 320.711945,469.113922 312.111755,472.386810 
	C316.472778,473.431366 320.029297,470.990540 324.114563,472.618500 
	C320.193512,476.041504 314.925751,474.522064 311.032562,477.289673 
	C310.831879,481.428192 313.456421,483.067841 317.029755,483.676025 
	C333.275452,486.441193 349.524841,489.401917 365.379028,493.777252 
	C374.887207,496.401276 383.460510,493.732178 392.384735,492.411438 
	C398.719604,491.473877 404.991455,491.086121 411.208252,492.843323 
	C414.255157,493.704529 416.789703,492.847046 419.181152,491.117889 
	C422.151093,488.970337 425.032440,486.696747 428.049194,484.618591 
	C430.188477,483.144928 432.272614,481.345764 435.680328,481.763184 
	C435.419342,484.755249 433.389526,486.428070 431.598785,488.231293 
	C426.808990,493.054443 427.052551,495.095673 433.658661,497.084381 
	C444.162811,500.246552 454.835144,502.860687 465.475037,505.553802 
	C468.135132,506.227081 470.566071,506.882935 471.781311,509.610718 
	C470.339874,512.043396 468.230591,511.402771 466.366089,510.947449 
	C452.637360,507.594635 438.669098,505.193939 425.237701,500.650360 
	C424.302948,500.334167 422.944611,499.703522 422.384918,500.090088 
	C417.388458,503.541412 412.352509,501.194275 407.484192,500.151459 
	C399.775024,498.500092 392.622467,500.122528 385.487823,502.715118 
	C382.201294,503.909363 378.841217,504.902618 375.563751,506.119690 
	C372.876801,507.117554 370.879974,509.174469 370.669464,511.943970 
	C370.450104,514.830139 373.403137,515.464722 375.445190,516.320374 
	C388.020538,521.589783 401.046051,525.719055 413.389801,531.601868 
	C426.147339,537.681763 439.062225,543.431458 451.908051,549.326050 
	C452.934967,549.797302 454.041687,550.183960 454.482391,551.475586 
	C452.432648,553.134827 450.511444,552.153198 448.754822,551.497192 
	C432.231232,545.325867 415.750122,539.040771 399.225311,532.872681 
	C391.114014,529.845032 382.922211,527.033386 374.797516,524.040710 
	C372.289764,523.117065 369.917633,522.960205 367.639954,524.475403 
	C359.137970,530.131226 349.932129,534.402649 340.509216,538.226807 
	C336.594055,539.815674 335.657867,541.865906 338.621124,545.303711 
	C341.725922,548.905762 341.136810,552.317749 337.504120,555.235962 
	C334.831360,557.383118 332.093994,559.449829 328.721558,562.067688 
	C328.639954,557.722839 331.333313,556.077209 333.256226,554.152588 
	C336.088043,551.318298 336.576599,548.919067 332.909668,546.484558 
	C332.093903,545.942993 331.412720,545.167908 330.754486,544.425049 
	C327.119171,540.322449 327.310272,538.807739 331.760071,535.714783 
	C337.714661,531.575928 344.848419,529.964111 351.180145,526.633545 
	C353.094238,525.626709 355.039398,524.679016 356.963348,523.690674 
	C357.406952,523.462830 357.836914,523.200867 358.247406,522.917358 
	C359.720367,521.900208 362.941498,506.345398 361.895325,505.014191 
	C360.427826,503.146851 358.141846,502.954193 356.060547,502.491638 
	C339.675873,498.850311 323.261902,495.339172 306.896912,491.612366 
	C302.084930,490.516541 298.246826,487.998474 297.860443,482.393677 
	C297.667816,479.599487 295.800049,479.420837 293.651489,479.341309 
	C286.129883,479.062866 278.692078,479.633148 271.246765,480.792725 
	C268.458740,481.226929 264.337189,483.302887 263.533997,477.764343 
	C263.482941,477.412079 262.447418,477.110809 261.827240,476.946259 
	C247.370712,473.110199 233.329239,472.076904 218.325562,476.515381 
	C199.139206,482.191254 181.321487,491.456329 161.298660,496.249817 
	C164.598755,498.750397 167.427292,500.898315 170.260925,503.039520 
	C173.142380,505.216858 173.332703,507.312073 169.937637,509.079010 
	C167.434692,510.381561 164.914551,511.738495 162.256088,512.641357 
	C133.882050,522.277466 104.974480,530.151489 76.228531,538.559265 
	C75.148880,538.875061 74.036179,539.528259 72.029808,537.685181 
	C100.340546,524.236938 130.656631,517.706482 159.263733,505.897522 
	C158.194931,502.726410 154.955231,502.490021 152.816055,500.910370 
	C150.750656,499.385223 146.981003,498.985352 147.127869,495.984680 
	C147.285233,492.769714 151.031464,492.237885 153.527954,491.236450 
	C164.190826,486.959290 174.942581,482.903748 185.658279,478.757996 
	C186.243759,478.531494 186.796524,478.220459 188.658188,477.329987 
	C179.493195,477.397430 171.689514,478.102936 164.251358,479.889313 
	C149.103790,483.527100 134.135208,482.105774 119.107124,479.934357 
	C114.280426,479.236969 109.479843,479.304993 104.652725,479.279541 
	C99.299721,479.251312 95.085312,480.405090 93.026154,486.397003 
	C91.302834,491.411804 86.338493,491.818481 81.690094,491.874268 
	C69.192940,492.024170 56.695335,492.139587 44.198494,492.311188 
	C38.861217,492.384491 33.587132,493.112335 28.332590,494.018982 
	C26.046528,494.413452 23.735865,494.633087 20.180706,493.542938 
	C25.970821,491.128326 31.194136,490.948730 36.122196,489.876862 
	C50.660480,486.714722 65.446877,485.725677 80.294830,485.881226 
	C83.900299,485.918976 86.531685,484.714508 88.095024,481.641571 
	C92.153465,473.664368 99.083160,471.767731 107.277672,471.962616 
	C113.274361,472.105194 119.264488,472.031433 125.244568,472.728577 
	C132.359756,473.558075 139.523056,474.592773 146.674774,473.752563 
	C156.400070,472.610077 166.072739,471.019592 175.760178,469.435333 
	C171.611145,468.866821 167.323746,470.183502 163.146820,467.389252 
	C175.058975,465.723206 186.971146,464.057129 200.162384,462.212158 
	C189.097321,460.410400 179.716156,465.246521 169.877762,464.173004 
	C173.039917,460.695618 177.480377,461.370300 181.398224,460.495392 
	C185.578583,459.561890 189.789383,458.764801 193.950745,457.589355 
	C188.444672,456.269897 182.988266,458.828369 176.536575,457.777649 
	C181.188126,454.556793 186.077332,455.333618 191.112808,453.445343 
	C185.878876,447.497101 181.661087,441.267853 177.598343,434.921204 
	C171.543533,425.462616 166.438583,415.585144 163.221161,404.816376 
	C162.056595,400.918549 160.505234,399.094757 155.836624,399.887787 
	C147.682190,401.272980 144.454346,399.120667 141.070267,391.361450 
	C138.256821,384.910645 135.929092,378.367279 137.752960,371.087280 
	C138.900864,366.505402 141.253036,363.021423 145.986664,362.026031 
	C150.452805,361.086914 150.620361,358.846344 149.920319,354.832611 
	C146.017227,332.453217 145.415390,310.144318 152.896774,288.242798 
	C156.385666,278.029175 162.440536,270.011536 172.531570,265.488220 
	C173.290741,265.147919 174.065536,264.584625 174.839294,264.573944 
	C184.339096,264.442627 187.657074,258.453613 190.565765,250.314285 
	C195.943741,235.265213 207.225037,225.766953 222.597961,221.221268 
	C232.362885,218.333862 242.268753,215.949860 252.410324,215.152252 
	C267.579834,213.959229 280.068665,220.260513 290.355225,230.803619 
	C306.943359,247.805450 319.832642,267.236389 327.337372,289.988495 
	C328.840454,294.545471 330.919037,298.922089 332.263550,303.518951 
	C333.370941,307.305084 335.054260,308.002655 338.749725,306.719025 
	C355.424011,300.927124 372.362549,295.979889 389.318207,291.063171 
	C410.279480,284.984894 431.511017,280.032898 452.777069,275.262054 
	C476.146851,270.019257 499.594147,265.114990 523.439819,262.307831 
	C554.930359,258.600708 586.492554,256.608917 618.181885,257.967194 
	C643.304749,259.044037 668.386108,260.924652 693.289856,264.577911 
	C697.232727,265.156311 698.137878,263.063507 698.906311,260.003632 
	C702.077454,247.376938 706.115967,235.029953 712.108398,223.438782 
	C719.073547,209.966095 728.049866,198.087601 740.470276,189.066757 
	C749.585999,182.446152 759.784973,179.579636 770.981873,179.857361 
	C782.363098,180.139664 793.534973,182.184479 804.551392,184.646454 
	C818.998657,187.875183 828.574341,197.624817 835.405212,210.335632 
	C836.824585,212.976654 838.383423,215.343552 840.895630,217.249451 
	C859.435913,231.315231 872.282349,248.873856 874.361023,272.884155 
	C874.518188,274.700043 875.259521,276.507996 875.175781,278.293701 
	C874.962341,282.847473 875.295044,286.818146 880.468811,288.728058 
	C882.375000,289.431763 883.041748,291.675964 883.750183,293.570648 
	C885.857849,299.207947 885.775391,305.054718 884.923035,310.832306 
	C884.200867,315.726990 880.920288,319.105804 876.176880,320.006104 
	C872.646912,320.676056 871.562683,322.488861 870.919495,325.526550 
	C868.105225,338.817932 861.051270,350.180603 854.119568,361.549896 
	C850.510620,367.469238 845.278870,371.873138 837.996033,375.880371 
	C852.811096,375.228729 866.277161,375.875000 879.327881,376.857849 
	C879.833496,376.016785 879.991272,375.877197 879.990234,375.738800 
	C879.915283,365.633514 879.983582,365.282501 890.515686,365.694946 
	C901.653198,366.131104 912.763184,367.244202 923.890625,367.979492 
	C927.203064,368.198364 930.634949,368.615479 932.038086,364.220428 
	C932.585449,362.505951 934.646484,362.172516 936.243958,361.903320 
	C950.049988,359.576996 963.984253,358.492950 977.953735,357.801361 
	C979.079712,357.745636 980.261475,357.751526 981.786987,359.686584 
	C966.911926,362.846802 952.095032,362.791779 938.252014,366.598816 
	C937.484680,368.241974 938.427734,369.204681 938.684753,370.297363 
	C939.511169,373.811005 938.250427,375.757019 934.504517,375.915558 
	C923.970398,376.361450 913.619080,374.371246 903.177490,373.589996 
	C899.067871,373.282532 894.970398,372.773132 891.085266,373.482147 
	C890.787659,374.263672 890.507874,374.615051 890.580566,374.863281 
	C892.973022,383.035370 892.212219,384.473450 883.266296,384.984985 
	C871.801941,385.640472 860.328369,386.043335 848.861511,386.809265 
	C839.198120,387.454742 829.728760,388.964172 820.236816,390.636658 
	C831.972351,390.195160 843.562500,387.687958 855.434937,388.392639 
	C849.707458,391.286774 843.132080,390.346130 837.242737,392.583405 
	C846.758728,391.927979 856.252075,389.619568 866.282959,391.771179 
	C862.610596,395.653381 858.387512,396.632324 853.982605,397.360626 
	C849.605408,398.084320 845.272949,399.079193 841.030396,400.914490 
	C846.291870,400.642670 851.553406,400.370819 856.814880,400.098969 
	C851.453247,403.847076 844.761963,402.930695 838.788208,406.699158 
	C845.439148,409.696228 852.132629,409.986633 858.475403,411.555725 
	C863.640869,412.833496 868.912231,413.700897 874.044922,415.089142 
	C880.083191,416.722321 881.777832,421.620758 878.491272,427.090973 
	C877.220398,429.206146 875.987305,431.344025 873.925415,434.852661 
	C909.019958,440.293640 941.845337,450.762909 975.503296,462.173248 
	C972.389587,464.911224 970.380493,463.505219 968.786682,463.040833 
	C945.753113,456.329163 922.114197,452.280457 898.748596,447.047150 
	C891.135925,445.342163 883.315674,444.575836 875.608032,443.275299 
	C873.486328,442.917328 871.363953,442.350616 869.353760,441.585571 
	C863.896667,439.508759 862.896912,436.836334 865.363464,431.626801 
	C866.640076,428.930511 867.842773,426.199249 869.306091,422.984650 
	C855.546692,420.428864 841.978088,418.152191 828.521118,415.341339 
	C814.715454,412.457611 800.533691,411.198914 787.275696,405.813110 
	C783.902893,404.442993 780.444763,406.535522 777.015564,406.950195 
	C773.979492,407.317352 771.005432,408.915253 768.083313,407.762115 
	C766.877747,405.787506 769.269409,405.459320 769.295105,404.094238 
	C765.081421,402.468750 761.220703,403.834442 757.558838,405.254608 
	C746.225281,409.650269 734.854736,413.879883 723.097290,417.054779 
	C717.776245,418.491608 717.493469,419.789795 721.335327,423.538177 
	C725.519775,427.620911 729.284424,432.050781 733.047546,436.506287 
	C735.310974,439.186066 735.667114,441.950592 734.571167,445.715302 
	C731.431030,443.083801 730.460083,439.209961 727.248840,437.365540 
	C725.672424,436.460114 724.424805,435.283051 722.263123,436.120758 
	C712.719482,439.819244 702.655457,441.352203 692.569702,442.426910 
	C684.162231,443.322784 677.409607,446.865112 671.818726,453.042419 
	C670.146912,454.889648 668.266052,456.563293 666.367737,458.183868 
	C665.311157,459.085846 664.094116,460.720154 662.554810,459.184998 
	C661.045044,457.679230 661.881897,456.156281 663.215210,454.867249 
	C672.319763,446.065430 682.018066,438.613403 695.407715,437.447021 
	C701.493530,436.916870 707.492737,435.140594 713.467529,433.670502 
	C717.957581,432.565735 718.300293,431.076660 715.098877,427.629425 
	C713.631409,426.049286 711.896790,424.720673 710.335266,423.223846 
	C705.585632,418.670929 706.356445,414.609192 712.620361,412.468689 
	C722.072021,409.238892 731.625183,406.307007 741.104614,403.156647 
	C742.527771,402.683655 744.630188,402.998932 744.754333,400.441040 
M275.563843,266.975861 
	C283.048340,278.823853 289.244995,291.249420 293.956635,304.510101 
	C305.927338,338.201172 314.133881,372.400604 310.326355,408.555939 
	C308.587524,425.067505 305.276825,441.090393 296.921906,455.707184 
	C296.208862,456.954620 295.044159,458.129120 295.627747,459.756348 
	C296.309082,460.529114 297.108582,460.552673 297.950134,460.331757 
	C309.307312,457.349884 318.746368,452.100311 324.353668,440.931335 
	C335.134705,419.457031 337.953217,396.432465 337.382446,373.002350 
	C336.912018,353.690521 333.135803,334.728607 327.671844,316.109222 
	C319.905029,289.642517 309.147095,264.728607 291.185272,243.460785 
	C280.868408,231.245010 268.972565,221.585571 251.545029,223.453094 
	C245.669724,224.082657 239.573151,224.375931 233.101471,227.841034 
	C252.681671,235.806168 264.899017,250.058441 275.563843,266.975861 
M754.357727,365.191895 
	C759.391357,366.479950 763.863037,364.966492 768.173218,362.489716 
	C776.189026,357.883575 781.162537,350.608154 785.056213,342.610260 
	C797.907532,316.212677 801.500061,288.326782 797.356506,259.437439 
	C795.746887,248.214737 793.369690,236.933884 786.920044,227.369537 
	C776.647827,212.136627 766.364624,210.841614 754.209656,219.467697 
	C738.245483,230.797089 731.483215,247.606796 727.353516,265.851318 
	C726.796204,268.313171 727.855652,269.818604 730.418091,270.682159 
	C735.238831,272.306854 738.709229,271.797668 741.850403,267.049683 
	C748.220093,257.421539 752.878357,256.182281 763.858276,259.858917 
	C765.278625,260.334534 766.653931,260.966095 768.096741,261.349731 
	C774.198608,262.972168 777.881836,267.215210 779.394470,272.967987 
	C783.240112,287.593262 782.121521,301.666962 773.429138,314.561523 
	C769.201782,320.832458 763.249084,323.421478 755.801270,322.473846 
	C745.682861,321.186432 738.199524,316.502289 735.644714,306.008514 
	C734.361389,300.737274 730.329651,301.332672 726.536560,301.360779 
	C723.019226,301.386841 723.138916,304.045227 723.379944,306.375610 
	C724.701111,319.149475 726.403625,331.884125 732.101013,343.596558 
	C736.747131,353.148041 742.089539,362.202698 754.357727,365.191895 
M788.555969,194.928757 
	C782.198730,190.374359 775.382141,187.092651 767.302185,187.578735 
	C751.269714,188.543198 739.561829,197.174698 730.124329,209.270309 
	C718.231628,224.512726 711.518494,242.227249 706.773193,260.760834 
	C706.200073,262.999298 704.864075,265.818268 708.825500,266.709198 
	C712.261475,267.481934 715.054749,267.512054 715.763855,262.987061 
	C716.173035,260.375885 717.146912,257.850250 717.902954,255.296860 
	C723.313232,237.024139 731.372314,220.569168 748.217468,209.864639 
	C756.093933,204.859406 764.114258,204.391037 772.460449,208.126190 
	C785.745239,214.071518 792.652527,225.259888 797.242249,238.401779 
	C805.011353,260.647308 805.815308,283.366791 801.692200,306.325806 
	C798.489990,324.156708 793.431763,341.425293 782.091309,356.032532 
	C776.227234,363.585846 769.543579,370.581879 759.453003,372.170593 
	C746.420898,374.222504 736.235962,368.427307 728.486328,358.711273 
	C716.108154,343.192139 712.445740,324.650726 711.770569,305.321259 
	C711.528381,298.387878 710.434998,297.517456 703.321960,299.264648 
	C703.113586,310.673401 703.870605,322.096283 706.416382,333.327362 
	C710.320129,350.548920 715.989868,366.832245 729.443176,379.448151 
	C743.995850,393.094940 764.680908,394.445892 778.853271,382.060303 
	C789.064941,373.135986 796.766113,362.226959 802.179871,349.955505 
	C818.168701,313.713928 821.306396,276.015564 812.438293,237.587143 
	C808.747131,221.592377 801.948608,206.639999 788.555969,194.928757 
M485.899445,287.479858 
	C509.788361,283.129425 533.737122,279.147156 557.773743,275.694153 
	C574.808350,273.247009 591.894409,272.170685 609.080872,273.571075 
	C610.685486,273.701843 612.735840,273.181793 613.903503,276.130371 
	C582.405762,276.240448 551.698975,279.395355 521.352844,286.349518 
	C587.871521,277.970062 654.072937,282.135468 720.286621,290.285156 
	C702.049561,284.774292 683.026245,283.665924 663.604065,279.979889 
	C665.820557,277.975494 667.351868,278.506989 668.735291,278.637451 
	C687.785645,280.433777 706.747192,282.909393 725.563354,286.404480 
	C733.317932,287.844910 741.362671,288.500366 748.463623,294.084564 
	C739.213196,295.725067 731.493164,289.160004 721.850159,290.239197 
	C723.127014,291.357147 723.546570,292.046570 724.060974,292.126709 
	C732.269226,293.404999 740.460815,294.897461 748.718323,295.710114 
	C753.397705,296.170624 754.294739,292.159485 754.531799,288.556427 
	C754.764404,285.020935 754.720642,281.147339 749.914978,280.548340 
	C746.125977,280.076050 742.191833,280.527069 738.468872,279.808167 
	C724.584717,277.127167 710.613892,275.056335 696.626160,273.020233 
	C670.075256,269.155182 643.304810,268.023651 616.588318,266.179382 
	C596.431885,264.787903 576.314148,265.461731 556.229614,267.322418 
	C541.812683,268.658051 527.347351,269.756561 513.031433,271.839447 
	C481.243988,276.464325 450.009888,283.974670 418.796692,291.396698 
	C392.410858,297.670776 366.417389,305.475037 340.510315,313.529663 
	C334.789246,315.308350 337.192261,319.006195 337.889618,322.318848 
	C338.748566,326.398956 341.340942,325.167969 344.027496,324.257172 
	C357.423218,319.715729 370.744385,314.903137 384.610107,311.926636 
	C386.143372,311.597504 388.015167,310.244507 390.258057,312.923401 
	C378.172577,318.343292 365.079437,319.910095 353.966278,326.461365 
	C362.087738,324.011566 370.254517,321.808990 378.477631,319.753693 
	C400.889862,314.151947 423.401337,308.821442 445.489990,302.119537 
	C453.217041,299.775116 463.293884,302.406036 468.494385,293.266571 
	C474.311401,292.285553 478.553040,286.650269 485.899445,287.479858 
M830.435181,349.948822 
	C832.511292,344.686798 834.981323,339.542694 836.597717,334.143066 
	C845.216797,305.350586 845.681396,276.189606 840.401611,246.733658 
	C837.951050,233.061920 832.924316,220.535156 825.291138,209.029999 
	C818.000854,198.041565 808.189209,191.380890 793.760986,191.576859 
	C820.577148,221.134598 825.923462,256.582336 822.649109,293.614471 
	C819.383850,330.542114 808.648560,364.997986 779.687805,391.066010 
	C781.804932,392.510864 783.475403,392.469971 785.106812,392.113525 
	C790.243652,390.991302 795.698792,391.936615 800.016846,386.815643 
	C802.027344,384.431274 806.545654,383.516846 809.468628,380.907837 
	C818.883423,372.503937 825.166809,362.046295 830.435181,349.948822 
M259.961792,446.093872 
	C259.145569,448.663696 260.699097,449.206451 262.586731,448.697327 
	C264.476501,448.187653 266.326904,447.291748 267.997284,446.249054 
	C276.753143,440.783447 281.121185,432.270813 283.644196,422.708893 
	C289.666016,399.886780 288.907562,376.854156 285.216034,353.802612 
	C281.922211,333.234375 274.735321,313.942932 265.677948,295.277588 
	C259.095520,281.712494 250.710983,269.689575 237.551926,261.648926 
	C229.980408,257.022430 218.395340,256.689728 211.441772,261.016205 
	C225.575638,270.442749 235.607330,283.355042 243.566147,298.007385 
	C257.262848,323.223267 264.969757,350.273224 267.914459,378.732422 
	C270.272339,401.520172 269.459869,423.965912 259.961792,446.093872 
M205.902924,310.676697 
	C211.916931,319.742645 216.557693,329.489624 219.980331,339.791626 
	C227.379059,362.061523 231.686935,384.824463 230.157303,408.412994 
	C229.704895,415.389404 228.695862,422.314362 226.114685,428.895844 
	C222.859680,437.195435 215.844543,442.503113 208.782318,441.194427 
	C200.995224,439.751404 194.284668,435.847717 190.087509,428.976715 
	C184.547394,419.907166 178.496124,411.075775 174.918716,400.920105 
	C174.261612,399.054718 173.298172,396.603271 170.850861,397.466858 
	C167.901627,398.507538 169.345535,401.116547 170.049911,403.003906 
	C175.802811,418.418762 183.614258,432.645081 194.649124,444.972015 
	C198.454330,449.222778 202.911530,452.628296 207.872650,455.442719 
	C218.185654,461.293365 224.832626,457.902771 230.395248,448.883850 
	C231.610580,446.913361 232.688812,444.783173 233.395462,442.586700 
	C237.127777,430.985321 239.777405,419.193604 239.974518,406.903748 
	C240.376785,381.823395 235.993729,357.572937 227.749619,333.962311 
	C221.943146,317.332977 213.848297,301.901398 202.794952,288.162354 
	C197.747879,281.888977 191.698364,276.725586 183.735107,274.181488 
	C179.790756,272.921356 176.252640,273.208008 172.733170,275.278992 
	C164.673203,280.021698 161.081604,287.822662 158.537033,296.237549 
	C152.805817,315.190735 155.300293,334.480743 156.489700,353.698303 
	C156.583771,355.218414 156.746170,357.300079 159.224304,357.037811 
	C161.313187,356.816711 161.908569,355.327545 161.856537,353.459991 
	C161.712799,348.300415 161.401215,343.140076 161.437286,337.981995 
	C161.519806,326.180359 161.431610,314.365875 166.486084,303.236786 
	C172.170700,290.720306 182.698151,288.086334 193.495575,296.748291 
	C198.211014,300.531158 201.819534,305.342072 205.902924,310.676697 
M208.588257,268.899353 
	C197.487350,265.415100 194.561249,265.517944 189.480270,269.693054 
	C209.300339,281.679474 218.833557,301.579956 227.881485,321.303284 
	C237.074188,341.342133 241.257629,363.052338 243.889297,384.898041 
	C246.667648,407.961304 246.302658,430.777069 235.570267,452.242462 
	C235.210358,452.962280 234.886871,453.797241 236.024170,454.909607 
	C243.099670,453.865448 248.699081,450.222168 252.378906,443.787384 
	C255.956314,437.531708 258.259888,430.763794 259.649048,423.702240 
	C263.824036,402.479584 262.786682,381.290955 258.599548,360.245483 
	C252.921402,331.705719 242.767853,304.970001 225.284531,281.383789 
	C221.146805,275.801697 216.219940,271.174286 208.588257,268.899353 
M262.255615,257.222321 
	C260.194641,254.606781 258.320709,251.813812 256.038696,249.407928 
	C248.244400,241.190567 239.591690,234.410461 227.897659,232.543243 
	C214.261505,230.365921 198.668518,242.540207 198.026306,256.451843 
	C201.491882,256.327698 204.310638,254.511047 207.299118,253.252457 
	C220.478882,247.701721 232.837723,249.031403 244.736313,257.089386 
	C257.506592,265.737640 265.263672,278.295197 271.938782,291.554626 
	C288.313843,324.081879 296.899231,358.440186 295.380676,395.098450 
	C294.825531,408.499908 293.080811,421.588379 288.305450,434.203735 
	C283.873993,445.910553 275.678864,453.477600 263.816559,457.236359 
	C260.865875,458.171356 257.704742,458.570862 255.007599,460.223022 
	C255.550446,462.792542 257.471863,463.629791 259.255280,464.404633 
	C268.816925,468.559021 281.792664,465.031921 288.046753,456.578339 
	C294.496094,447.860870 298.380981,438.014862 300.685303,427.477600 
	C305.176910,406.938232 305.342804,386.329498 302.858978,365.477325 
	C298.187958,326.262665 286.507721,289.801941 262.255615,257.222321 
M199.595413,335.560150 
	C205.667511,338.856415 206.656906,345.299591 209.124298,350.853577 
	C215.269424,364.686005 216.559662,379.057098 214.064957,393.865723 
	C213.205475,398.967621 210.555786,402.425690 205.147980,403.231323 
	C202.166122,403.675537 199.710526,405.103333 198.351685,407.779602 
	C197.202408,410.043121 195.563217,411.689423 193.172150,412.783905 
	C197.386932,419.698669 200.959259,426.533722 207.270538,431.270630 
	C213.339462,435.825653 218.078384,434.699829 221.266861,427.842072 
	C223.888626,422.203217 225.330795,416.199402 225.632385,409.994690 
	C227.280960,376.080658 220.139053,344.202454 203.263092,314.634094 
	C200.620087,310.003296 197.690903,305.535645 193.549484,302.038574 
	C186.871429,296.399597 180.714844,297.646179 177.080826,305.618866 
	C173.859436,312.686310 172.892380,320.230042 173.039505,328.313782 
	C174.736984,327.944031 176.182861,327.732849 177.563187,327.308472 
	C181.319641,326.153564 184.678986,326.718201 186.817383,330.143097 
	C189.716354,334.786163 193.677856,336.348236 199.595413,335.560150 
M159.893707,390.496643 
	C167.776184,390.142456 175.117416,387.341156 182.632782,385.367859 
	C185.033325,384.737549 185.612289,382.499176 185.685684,380.175568 
	C185.845032,375.131165 184.712021,370.275360 183.436798,365.470917 
	C182.539474,362.090210 180.083008,360.751129 176.587326,361.168549 
	C169.781357,361.981323 163.229095,363.720520 156.896851,366.326416 
	C155.435471,366.927826 153.700912,367.868713 154.563828,369.511353 
	C157.980011,376.014343 157.728424,383.261139 159.893707,390.496643 
M756.334473,277.218536 
	C761.759766,283.026062 761.062317,289.808014 758.708374,296.383392 
	C755.914124,304.188599 749.128296,304.374084 742.231873,303.070618 
	C741.855347,306.746735 743.856201,308.686737 745.563538,310.622498 
	C751.110962,316.912048 755.952454,316.233429 759.721436,308.784882 
	C760.395020,307.453796 761.249023,306.206635 761.842529,304.843567 
	C766.838928,293.367828 769.092590,281.786011 763.265015,269.840607 
	C761.406128,266.030212 759.183411,262.691772 754.331848,263.474030 
	C749.597778,264.237366 746.995850,267.441315 745.737915,272.197327 
	C749.358765,273.526459 753.137390,273.940491 756.334473,277.218536 
M859.321960,317.592468 
	C856.973633,330.178772 852.706604,342.212280 848.495789,354.261993 
	C869.080627,327.703369 874.619995,274.345428 857.257507,243.855194 
	C859.823120,256.529388 862.321472,268.338867 862.368042,280.507874 
	C862.414673,292.684357 861.897583,304.787201 859.321960,317.592468 
M186.733307,398.755402 
	C191.260742,402.699860 193.170410,402.135223 194.816483,396.326080 
	C195.178040,395.050018 195.402771,393.735474 195.697479,392.440247 
	C198.718842,379.161682 194.455505,366.797119 191.031372,354.295502 
	C189.890686,350.130798 187.670853,347.985931 183.587418,346.031281 
	C179.634109,344.138947 172.609848,344.578949 173.183334,335.963531 
	C169.449158,342.256866 170.040848,347.576141 171.966797,353.644379 
	C178.748154,351.085449 184.029785,353.142761 187.979279,358.868011 
	C190.736359,362.864716 190.937668,367.564209 191.668808,372.112152 
	C193.572906,383.956238 191.401184,388.596771 181.477753,394.053772 
	C183.068634,395.452759 184.659531,396.851746 186.733307,398.755402 
M202.583023,351.745697 
	C201.656525,349.436920 200.653091,347.155365 199.823730,344.812195 
	C198.864807,342.103027 197.070618,342.510620 195.003128,343.230347 
	C192.823700,343.989014 192.125931,345.249359 193.121063,347.411438 
	C193.953201,349.219299 194.667175,351.081116 195.463776,352.905823 
	C201.004074,365.596771 204.381104,378.563049 200.882156,392.511475 
	C199.962814,396.176392 201.503113,397.440674 205.085953,396.353577 
	C207.492249,395.623505 208.587311,393.928101 208.736572,391.565643 
	C209.586884,378.106293 210.332367,364.655609 202.583023,351.745697 
M845.634888,329.026123 
	C843.821899,337.756195 840.509338,346.036621 837.356812,355.477844 
	C859.037964,323.314392 860.110046,258.535828 846.313660,236.345245 
	C853.601318,266.497253 853.282593,297.357880 845.634888,329.026123 
M770.425354,273.420258 
	C773.681885,287.627594 772.831665,301.303406 764.128479,314.422546 
	C767.453064,313.806061 769.018799,312.469147 770.059021,310.516754 
	C776.986938,297.512909 777.853333,284.001434 773.255005,270.097870 
	C772.465759,267.711578 770.983276,265.847046 767.799316,265.785095 
	C768.726318,268.317932 769.513611,270.469086 770.425354,273.420258 
M716.811401,311.860931 
	C717.804138,327.709808 721.988831,340.713959 727.744812,345.208405 
	C721.202332,330.900909 719.572021,315.785553 718.221924,300.552124 
	C715.426819,303.922974 716.553894,307.491272 716.811401,311.860931 
M152.641296,382.876953 
	C151.716827,378.458099 151.472305,373.714844 147.125275,370.790314 
	C142.849197,376.777649 144.690155,387.214539 150.749542,391.982910 
	C153.511429,389.717529 152.462006,386.565063 152.641296,382.876953 
M498.875916,288.431000 
	C491.725647,289.880676 484.496307,291.049561 477.840546,294.295807 
	C491.171997,292.457214 504.494141,290.650116 517.566833,287.575592 
	C517.472229,286.990936 517.377563,286.406281 517.282959,285.821625 
	C511.432098,286.652954 505.581238,287.484314 498.875916,288.431000 
M443.781586,430.516022 
	C444.199158,430.305450 444.616730,430.094879 445.034302,429.884308 
	C444.954315,429.773193 444.869293,429.561829 444.795105,429.565552 
	C442.486572,429.681885 440.174591,429.987305 437.872162,429.925690 
	C424.028564,429.555298 410.483185,433.301514 396.660706,433.337952 
	C412.227631,434.015961 427.622833,431.279205 443.781586,430.516022 
M874.449158,303.905792 
	C874.265198,306.823883 874.081177,309.742004 873.887268,312.817078 
	C878.427490,309.451385 879.326477,301.238129 875.647949,296.064819 
	C875.262329,298.574493 874.917664,300.817505 874.449158,303.905792 
M728.177002,243.893524 
	C724.368347,250.385727 722.228271,257.389648 721.558594,264.850281 
	C723.299561,256.369354 728.241516,249.044189 730.640503,240.584457 
	C728.970581,241.020844 729.214600,242.518188 728.177002,243.893524 
M826.658203,398.667969 
	C834.754700,397.794281 842.778381,396.517151 850.661743,394.448944 
	C842.260742,395.502136 833.901550,396.799591 825.550171,398.145020 
	C825.062134,398.223633 825.109375,398.588867 825.602722,398.657471 
	C825.766541,398.680237 825.934448,398.673248 826.658203,398.667969 
M186.211761,335.835968 
	C184.723984,334.506439 184.242950,331.844788 180.894760,332.214844 
	C180.670425,335.303864 181.403244,337.662231 184.741379,338.431671 
	C186.196854,338.767151 187.560959,338.409210 186.211761,335.835968 
M835.880493,400.837738 
	C831.455750,401.304535 826.991394,401.573151 822.864685,403.577118 
	C827.359192,402.850616 832.135315,403.791687 835.880493,400.837738 
M824.361389,394.733185 
	C827.080017,394.362610 829.798706,393.992004 832.517395,393.621429 
	C826.602905,393.555237 820.775146,393.760315 815.227539,395.834900 
	C817.983276,395.485840 820.738953,395.136810 824.361389,394.733185 
M166.357651,334.625946 
	C166.357651,335.373291 166.357651,336.120636 166.357651,338.056091 
	C169.245422,332.196960 167.234955,327.297424 167.401123,322.508270 
	C167.054749,326.310272 166.708374,330.112244 166.357651,334.625946 
M198.369324,466.179291 
	C193.170792,466.047058 188.143127,467.079315 183.192093,468.668182 
	C188.351990,467.939178 193.511902,467.210175 198.369324,466.179291 
z"/>
    <path fill="#000000" opacity="1.000000" stroke="none"
          d="
M882.787842,421.386200 
	C880.916504,418.712128 883.363647,419.001190 884.454651,418.931732 
	C897.187988,418.120941 909.875854,415.204224 922.689575,417.829407 
	C924.818542,418.265564 926.075073,417.587921 927.401611,416.040588 
	C929.344849,413.773834 931.486511,411.664642 933.658630,409.609894 
	C936.059143,407.338989 938.883423,407.167816 941.352356,409.224884 
	C944.072632,411.491302 945.508301,414.895508 944.290466,418.165405 
	C943.045593,421.507751 938.784729,419.504395 935.811584,421.573730 
	C943.588745,422.166351 950.887817,422.722534 958.106812,423.272614 
	C958.047485,425.088806 957.281189,425.246002 956.702637,425.238251 
	C945.304321,425.085083 933.887817,426.531647 922.807983,421.563904 
	C915.544312,418.307220 907.365845,420.256378 899.581848,420.528748 
	C894.096313,420.720612 888.618469,421.130890 882.787842,421.386200 
M930.454773,416.798492 
	C932.211731,419.954926 934.787354,417.382263 936.950989,417.663666 
	C938.612488,417.879761 939.995667,417.116058 939.549194,415.052063 
	C939.136536,413.144135 937.789429,412.190125 935.873840,412.569916 
	C933.640625,413.012787 932.172852,414.680420 930.454773,416.798492 
z"/>
    <path fill="#000000" opacity="1.000000" stroke="none"
          d="
M748.832153,465.570007 
	C743.835449,463.144897 743.352722,459.916534 747.581299,455.828491 
	C752.216797,451.346954 757.467529,447.562256 763.160950,444.060577 
	C769.995300,448.546082 771.771423,460.146393 784.104858,456.466095 
	C783.921509,457.353638 783.738159,458.241150 783.554871,459.128662 
	C776.865967,457.703949 773.880188,463.025574 769.333557,465.350464 
	C763.128601,468.523376 755.990234,466.012329 748.832153,465.570007 
M767.142029,455.491699 
	C765.467712,453.655029 764.393677,449.709839 761.460388,451.136749 
	C757.171204,453.223206 753.046387,456.087433 749.740173,460.484192 
	C754.982056,462.419891 759.790283,461.839569 764.511597,461.771820 
	C768.614746,461.712921 770.051819,459.858429 767.142029,455.491699 
z"/>
    <path fill="#000000" opacity="1.000000" stroke="none"
          d="
M126.308632,442.437622 
	C126.160149,437.717285 124.189186,436.274353 119.697937,436.160370 
	C109.893623,435.911713 100.107475,434.910309 90.317467,434.169312 
	C88.695503,434.046539 87.022537,433.894226 85.623344,432.651093 
	C86.534531,431.209839 87.991432,431.647095 89.138344,431.707428 
	C101.427872,432.354462 113.712067,433.102051 125.999329,433.793732 
	C127.903000,433.900909 129.239700,434.640350 129.457626,436.648071 
	C129.891495,440.645477 132.534531,441.177155 135.876114,441.110535 
	C142.869003,440.971039 149.865891,440.979462 156.860550,441.022705 
	C158.412354,441.032318 160.254898,440.653809 161.209763,442.593048 
	C160.251770,444.509247 158.399292,444.117188 156.830505,444.323120 
	C148.707169,445.389374 140.539795,445.093994 132.383942,444.987762 
	C130.227249,444.959686 128.020905,444.717438 126.308632,442.437622 
z"/>
    <path fill="#000000" opacity="1.000000" stroke="none"
          d="
M606.831909,475.177979 
	C610.002197,475.974609 612.469116,477.339478 614.495483,479.378754 
	C617.798035,482.702423 617.027771,486.745789 612.574951,487.755798 
	C607.214294,488.971649 601.643494,488.916046 596.247803,487.795258 
	C593.071594,487.135529 592.113892,484.915131 593.531860,481.705597 
	C595.832214,476.498718 600.528625,473.995087 606.831909,475.177979 
M602.653809,479.972015 
	C600.755554,480.374573 598.273315,479.375641 597.010620,482.393280 
	C601.561829,483.491119 605.736633,484.352264 610.131348,482.040802 
	C608.157227,479.576721 605.689026,480.223175 602.653809,479.972015 
z"/>
    <path fill="#000000" opacity="1.000000" stroke="none"
          d="
M462.893982,482.251282 
	C459.733582,481.385315 459.272064,479.996918 460.757446,477.393188 
	C465.050873,469.867035 468.782318,468.246307 474.440247,471.509796 
	C477.290131,473.153625 477.691803,475.502625 477.197235,478.300232 
	C476.718323,481.009491 474.834412,482.261841 472.250946,482.353058 
	C469.266296,482.458466 466.273529,482.335571 462.893982,482.251282 
z"/>
    <path fill="#000000" opacity="1.000000" stroke="none"
          d="
M817.016357,486.429688 
	C816.377747,492.398407 809.348999,496.099304 804.623840,493.353729 
	C802.052734,491.859772 801.091614,489.625549 802.925659,487.113647 
	C804.573303,484.857239 806.358093,482.227203 808.722595,481.068634 
	C813.360535,478.796112 814.750488,483.374451 817.016357,486.429688 
z"/>
    <path fill="#000000" opacity="1.000000" stroke="none"
          d="
M247.881607,518.655090 
	C251.297699,520.345886 256.126678,521.169739 254.667847,525.952698 
	C253.210754,530.730042 248.391113,529.432983 244.757370,529.140564 
	C240.946625,528.833801 240.175858,526.741821 242.132599,523.261841 
	C243.364304,521.071411 244.633865,518.883850 247.881607,518.655090 
z"/>
    <path fill="#000000" opacity="1.000000" stroke="none"
          d="
M547.950989,419.279175 
	C542.579895,419.006378 537.523071,421.718445 532.682007,418.373016 
	C541.033264,416.454102 549.407959,415.189606 558.006104,416.652344 
	C555.109741,419.013336 551.536682,418.226990 547.950989,419.279175 
z"/>
    <path fill="#000000" opacity="1.000000" stroke="none"
          d="
M777.577698,464.656769 
	C775.790405,462.477661 775.877991,460.934906 778.625122,460.719482 
	C780.473083,460.574615 782.569275,459.942902 784.430176,462.002441 
	C782.721924,464.196075 780.981567,465.877716 777.577698,464.656769 
z"/>
</svg>